Coordinates
version=1
nRows=4
nColumns=63
inDegrees=yes

Units are S.I. units (second, meters, Newtons, ...)
If the header above contains a line with 'inDegrees', this indicates whether rotational values are in degrees (yes) or radians (no).

endheader
time	pelvis_tilt	pelvis_list	pelvis_rotation	pelvis_tx	pelvis_ty	pelvis_tz	hip_flexion_r	hip_adduction_r	hip_rotation_r	knee_angle_r	knee_angle_r_beta	ankle_angle_r	subtalar_angle_r	mtp_angle_r	hip_flexion_l	hip_adduction_l	hip_rotation_l	knee_angle_l	knee_angle_l_beta	ankle_angle_l	subtalar_angle_l	mtp_angle_l	L5_S1_Flex_Ext	L5_S1_Lat_Bending	L5_S1_axial_rotation	L4_L5_Flex_Ext	L4_L5_Lat_Bending	L4_L5_axial_rotation	L3_L4_Flex_Ext	L3_L4_Lat_Bending	L3_L4_axial_rotation	L2_L3_Flex_Ext	L2_L3_Lat_Bending	L2_L3_axial_rotation	L1_L2_Flex_Ext	L1_L2_Lat_Bending	L1_L2_axial_rotation	L1_T12_Flex_Ext	L1_T12_Lat_Bending	L1_T12_axial_rotation	Abs_r3	Abs_r2	Abs_r1	Abs_t1	Abs_t2	neck_flexion	neck_bending	neck_rotation	arm_flex_r	arm_add_r	arm_rot_r	elbow_flex_r	pro_sup_r	wrist_flex_r	wrist_dev_r	arm_flex_l	arm_add_l	arm_rot_l	elbow_flex_l	pro_sup_l	wrist_flex_l	wrist_dev_l
      0.00000000	     -2.42061966	     -4.93278668	     88.45253527	      0.22540444	      0.83690692	      0.66679371	     -1.44350289	     -2.32751919	     -1.27316783	      6.94156850	      0.12115323	     22.77280217	     -7.46009947	      0.00000000	     -3.70355778	      0.09879889	     13.56980323	      0.48155788	      0.00840477	     25.20123998	     -5.77526868	      0.00000000	      0.16574498	      0.04961057	     -0.10804373	      0.30780500	      0.06598206	     -0.11479647	      0.27230243	      0.12062315	     -0.11479647	      0.18942994	      0.12062315	     -0.09453827	      0.15391079	      0.10116588	     -0.08778553	      0.09470668	      0.07684678	     -0.08103280	      1.18389982	      0.56120472	     -0.60090683	      0.00000000	      0.00000000	     27.95737840	      1.76116566	      1.01109058	     10.05247661	     -1.08398758	     49.78261608	     27.32673259	     50.76781498	     -4.44928477	      8.33054515	     15.88393053	      2.88601322	     60.37483939	     22.65352996	     52.84683177	     -6.98845156	      4.32795373
      0.01694915	     -1.73687830	     -4.95070013	     87.54595980	      0.22617126	      0.83637779	      0.66634549	     -1.30485970	     -1.68208695	     -0.54232556	      7.14659480	      0.12473161	     22.94237183	     -6.94523150	      0.00000000	     -4.04598922	     -0.58282246	     13.06404649	      0.49937771	      0.00871579	     24.67734377	     -6.89133304	      0.00000000	      0.15426152	      0.13733525	      0.09408363	      0.28647908	      0.18265589	      0.09996385	      0.25343626	      0.33391693	      0.09996385	      0.17630550	      0.33391693	      0.08232317	      0.14324725	      0.28005405	      0.07644295	      0.08814503	      0.21273231	      0.07056272	      1.10187464	      1.55356384	      0.52326491	      0.00000000	      0.00000000	     28.03060360	      0.72740577	     -0.38196689	      9.83691102	     -1.38449373	     51.97780495	     26.82004506	     52.18726639	     -4.64620544	      7.84027014	     16.24681633	      3.00067050	     64.58410378	     21.85003683	     57.58717298	     -6.07295193	      4.72028495
      0.03389831	     -1.25316760	     -4.97119347	     86.99354014	      0.22672743	      0.83600803	      0.66611530	     -1.26880527	     -1.19528039	      0.07424374	      7.15154783	      0.12481806	     22.89453446	     -6.92218694	      0.00000000	     -4.26743045	     -1.06979585	     13.06042025	      0.52189084	      0.00910871	     24.32211152	     -7.99423517	      0.00000000	      0.14730025	      0.19883761	      0.24560633	      0.27355129	      0.26445402	      0.26095672	      0.24199958	      0.48345376	      0.26095672	      0.16834945	      0.48345376	      0.21490554	      0.13678301	      0.40546965	      0.19955514	      0.08416736	      0.30799945	      0.18420475	      1.05215093	      2.24929077	      1.36598872	      0.00000000	      0.00000000	     28.06232122	     -0.04914279	     -1.33073265	      9.68699909	     -1.65497270	     53.29896626	     26.64470380	     53.04989290	     -4.84100008	      7.79788589	     17.07190734	      3.25091660	     69.65340168	     20.73239173	     65.10553781	     -5.19285971	      4.18871675
      0.05084746	     -0.96969674	     -4.95432718	     86.61148260	      0.22727909	      0.83585166	      0.66603312	     -1.30571764	     -0.88873810	      0.69610067	      7.08423825	      0.12364328	     22.75585052	     -7.19320763	      0.00000000	     -4.44904211	     -1.36419411	     13.10761259	      0.52223064	      0.00911464	     24.13480049	     -8.67775336	      0.00000000	      0.13771452	      0.23539342	      0.34359677	      0.25574963	      0.31307325	      0.36507157	      0.22625118	      0.57233557	      0.36507157	      0.15739392	      0.57233557	      0.30064717	      0.12788170	      0.48001427	      0.27917237	      0.07869008	      0.36462441	      0.25769758	      0.98368103	      2.66281749	      1.91098215	      0.00000000	      0.00000000	     28.08064491	     -0.45153978	     -1.73896198	      9.66345378	     -1.80804751	     54.03115255	     26.56082017	     54.23569129	     -5.08412243	      7.80937282	     17.93466547	      3.54479081	     74.01242092	     19.76505997	     72.09579044	     -4.51789228	      3.50923604
